<?xml version="1.0" encoding="iso-8859-1"?>
<!-- Generator: Adobe Illustrator 19.0.0, SVG Export Plug-In . SVG Version: 6.00 Build 0)  -->
<svg version="1.1" id="Layer_1" xmlns="http://www.w3.org/2000/svg" xmlns:xlink="http://www.w3.org/1999/xlink" x="0px" y="0px"
	 viewBox="0 0 490 490" style="enable-background:new 0 0 490 490;" xml:space="preserve">
<g>
	<g>
		<g>
			<path d="M482.373,46.233l-68.939-0.266l0.003-38.31c0-2.031-0.806-3.978-2.242-5.414c-1.436-1.436-3.382-2.243-5.413-2.243
				h-38.265c-4.228,0-7.655,3.427-7.656,7.654l-0.011,38.283c-0.002,0-0.004,0-0.006,0H137.816l0.003-38.281
				c0-2.031-0.806-3.978-2.242-5.414c-1.437-1.435-3.384-2.242-5.415-2.242H91.897c-4.228,0-7.655,3.427-7.656,7.654L84.23,45.938
				c-0.004,0-0.007,0-0.011,0H7.656C3.428,45.938,0,49.365,0,53.594v76.562v30.625c0,4.229,3.428,7.656,7.656,7.656h15.313v313.906
				c0,4.229,3.428,7.656,7.656,7.656h428.381c4.228,0,7.656-3.427,7.656-7.656V168.438h15.682c4.228,0,7.656-3.427,7.656-7.656
				V53.889C490,49.673,486.591,46.25,482.373,46.233z M375.17,15.313h22.954l-0.005,61.25h-22.967L375.17,15.313z M99.551,15.313
				h22.954l-0.003,38.245c0,0.012-0.002,0.024-0.002,0.037c0,0.012,0.002,0.024,0.002,0.036L122.5,76.564H99.533L99.551,15.313z
				 M451.35,474.688H38.281v-306.25H451.35V474.688z M474.687,114.845h-22.969c-4.228,0-7.656,3.427-7.656,7.656
				s3.428,7.656,7.656,7.656h22.969v22.969H15.312v-0.001v-22.969h22.969c4.228,0,7.656-3.428,7.656-7.656
				c0-4.228-3.428-7.656-7.656-7.656H15.312V61.251h68.907c0.002,0,0.004,0,0.007,0l-0.007,22.968
				c-0.001,2.031,0.806,3.979,2.241,5.415c1.436,1.436,3.384,2.243,5.415,2.243h38.281c4.228,0,7.656-3.427,7.656-7.656
				l0.002-22.969h222.029h0.001l-0.006,22.967c-0.001,2.031,0.806,3.979,2.241,5.415c1.436,1.436,3.384,2.243,5.415,2.243h38.281
				c4.228,0,7.656-3.427,7.656-7.656l0.002-22.94l61.254,0.236V114.845z"/>
			<path d="M68.906,222.032H245c4.228,0,7.656-3.428,7.656-7.656c0-4.229-3.428-7.656-7.656-7.656H68.906
				c-4.228,0-7.656,3.428-7.656,7.656C61.25,218.603,64.678,222.032,68.906,222.032z"/>
			<path d="M191.407,260.313h-45.938c-4.228,0-7.656,3.427-7.656,7.656c0,4.228,3.428,7.656,7.656,7.656h45.938
				c4.228,0,7.656-3.428,7.656-7.656C199.063,263.74,195.635,260.313,191.407,260.313z"/>
			<path d="M214.375,267.969c0,4.228,3.428,7.656,7.656,7.656h45.938c4.228,0,7.656-3.428,7.656-7.656
				c0-4.229-3.428-7.656-7.656-7.656h-45.938C217.803,260.313,214.375,263.74,214.375,267.969z"/>
			<path d="M298.594,275.625h45.937c4.228,0,7.656-3.428,7.656-7.656c0-4.229-3.428-7.656-7.656-7.656h-45.937
				c-4.228,0-7.656,3.427-7.656,7.656C290.938,272.197,294.366,275.625,298.594,275.625z"/>
			<path d="M375.156,275.625h45.937c4.228,0,7.656-3.428,7.656-7.656c0-4.229-3.428-7.656-7.656-7.656h-45.937
				c-4.228,0-7.656,3.427-7.656,7.656C367.5,272.197,370.928,275.625,375.156,275.625z"/>
			<path d="M68.906,329.218h45.937c4.228,0,7.656-3.427,7.656-7.656s-3.428-7.656-7.656-7.656H68.906
				c-4.228,0-7.656,3.427-7.656,7.656S64.678,329.218,68.906,329.218z"/>
			<path d="M191.407,313.906h-45.938c-4.228,0-7.656,3.427-7.656,7.656s3.428,7.656,7.656,7.656h45.938
				c4.228,0,7.656-3.427,7.656-7.656C199.063,317.334,195.635,313.906,191.407,313.906z"/>
			<path d="M267.969,313.906h-45.938c-4.228,0-7.656,3.427-7.656,7.656s3.428,7.656,7.656,7.656h45.938
				c4.228,0,7.656-3.427,7.656-7.656C275.625,317.334,272.197,313.906,267.969,313.906z"/>
			<path d="M298.594,329.218h45.937c4.228,0,7.656-3.427,7.656-7.656s-3.428-7.656-7.656-7.656h-45.937
				c-4.228,0-7.656,3.427-7.656,7.656S294.366,329.218,298.594,329.218z"/>
			<path d="M375.156,329.218h45.937c4.228,0,7.656-3.427,7.656-7.656s-3.428-7.656-7.656-7.656h-45.937
				c-4.228,0-7.656,3.427-7.656,7.656S370.928,329.218,375.156,329.218z"/>
			<path d="M68.906,382.813h45.937c4.228,0,7.656-3.427,7.656-7.656c0-4.228-3.428-7.656-7.656-7.656H68.906
				c-4.228,0-7.656,3.428-7.656,7.656C61.25,379.385,64.678,382.813,68.906,382.813z"/>
			<path d="M191.407,367.5h-45.938c-4.228,0-7.656,3.428-7.656,7.656c0,4.229,3.428,7.656,7.656,7.656h45.938
				c4.228,0,7.656-3.427,7.656-7.656C199.063,370.928,195.635,367.5,191.407,367.5z"/>
			<path d="M267.969,367.5h-45.938c-4.228,0-7.656,3.428-7.656,7.656c0,4.229,3.428,7.656,7.656,7.656h45.938
				c4.228,0,7.656-3.427,7.656-7.656C275.625,370.928,272.197,367.5,267.969,367.5z"/>
			<path d="M298.594,382.813h45.937c4.228,0,7.656-3.427,7.656-7.656c0-4.228-3.428-7.656-7.656-7.656h-45.937
				c-4.228,0-7.656,3.428-7.656,7.656C290.938,379.385,294.366,382.813,298.594,382.813z"/>
			<path d="M375.156,382.813h45.937c4.228,0,7.656-3.427,7.656-7.656c0-4.228-3.428-7.656-7.656-7.656h-45.937
				c-4.228,0-7.656,3.428-7.656,7.656C367.5,379.385,370.928,382.813,375.156,382.813z"/>
			<path d="M68.906,436.406h45.937c4.228,0,7.656-3.428,7.656-7.656c0-4.229-3.427-7.656-7.656-7.656H68.906
				c-4.228,0-7.656,3.427-7.656,7.656C61.25,432.978,64.678,436.406,68.906,436.406z"/>
			<path d="M191.407,421.094h-45.938c-4.228,0-7.656,3.427-7.656,7.656c0,4.228,3.428,7.656,7.656,7.656h45.938
				c4.228,0,7.656-3.428,7.656-7.656C199.063,424.521,195.635,421.094,191.407,421.094z"/>
			<path d="M267.969,421.094h-45.938c-4.228,0-7.656,3.427-7.656,7.656c0,4.228,3.428,7.656,7.656,7.656h45.938
				c4.228,0,7.656-3.428,7.656-7.656C275.625,424.521,272.197,421.094,267.969,421.094z"/>
			<path d="M298.594,436.406h45.937c4.228,0,7.656-3.428,7.656-7.656c0-4.229-3.428-7.656-7.656-7.656h-45.937
				c-4.228,0-7.656,3.427-7.656,7.656C290.938,432.978,294.366,436.406,298.594,436.406z"/>
			<path d="M405.782,114.844H84.219c-4.228,0-7.656,3.427-7.656,7.656s3.428,7.656,7.656,7.656h321.562
				c4.228,0,7.656-3.428,7.656-7.656C413.437,118.273,410.01,114.844,405.782,114.844z"/>
		</g>
	</g>
</g>
<g>
</g>
<g>
</g>
<g>
</g>
<g>
</g>
<g>
</g>
<g>
</g>
<g>
</g>
<g>
</g>
<g>
</g>
<g>
</g>
<g>
</g>
<g>
</g>
<g>
</g>
<g>
</g>
<g>
</g>
</svg>
