<svg xmlns="http://www.w3.org/2000/svg" xmlns:xlink="http://www.w3.org/1999/xlink" version="1.1" width="1000" height="1000" viewBox="0 0 1000 1000" xml:space="preserve">
<desc>Created with Fabric.js 3.5.0</desc>
<defs>
</defs>
<rect x="0" y="0" width="100%" height="100%" fill="rgba(102,51,102,0)"/>
<g transform="matrix(0.8513 0 0 0.8513 500.0074 500.0074)" id="813405">
<g style="" vector-effect="non-scaling-stroke">
		<g transform="matrix(1 0 0 1 39.1445 -57.721)" id="Capa_1">
<path style="stroke: none; stroke-width: 1; stroke-dasharray: none; stroke-linecap: butt; stroke-dashoffset: 0; stroke-linejoin: miter; stroke-miterlimit: 4; is-custom-font: none; font-file-url: none; fill: rgb(0,0,0); fill-rule: nonzero; opacity: 1;" transform=" translate(-236.393, -139.5275)" d="M 181.239 84.373 c -30.412 30.413 -30.412 79.896 0 110.309 c 15.206 15.206 35.18 22.809 55.154 22.809 s 39.948 -7.603 55.154 -22.809 c 30.412 -30.413 30.412 -79.896 0 -110.309 C 261.136 53.961 211.651 53.961 181.239 84.373 z M 295 174.026 v -68.998 C 307.48 126.239 307.48 152.817 295 174.026 z M 285 91.994 v 95.067 c -0.177 0.181 -0.343 0.37 -0.522 0.55 c -26.514 26.512 -69.652 26.514 -96.168 0 c -3.953 -3.953 -7.302 -8.281 -10.076 -12.862 H 184 c 2.762 0 5 -2.239 5 -5 s -2.238 -5 -5 -5 h -10.747 c -3.926 -9.869 -5.447 -20.475 -4.576 -30.92 H 208 c 2.762 0 5 -2.239 5 -5 s -2.238 -5 -5 -5 h -37.742 c 2.653 -11.26 8.213 -21.961 16.66 -30.92 H 251 c 2.762 0 5 -2.239 5 -5 s -2.238 -5 -5 -5 h -52.269 c 11.361 -7.562 24.51 -11.349 37.662 -11.349 c 17.413 0 34.827 6.628 48.084 19.885 C 284.657 91.624 284.823 91.813 285 91.994 z" stroke-linecap="round"/>
</g>
		<g transform="matrix(1 0 0 1 0.0005 0.0005)" id="Capa_1">
<path style="stroke: none; stroke-width: 1; stroke-dasharray: none; stroke-linecap: butt; stroke-dashoffset: 0; stroke-linejoin: miter; stroke-miterlimit: 4; is-custom-font: none; font-file-url: none; fill: rgb(0,0,0); fill-rule: nonzero; opacity: 1;" transform=" translate(-197.249, -197.249)" d="M 389.225 266.902 l -72.44 -72.44 c 11.022 -16.057 16.958 -35.038 16.958 -54.935 c 0 -26.002 -10.127 -50.449 -28.514 -68.835 c -7.583 -7.583 -16.125 -13.624 -25.229 -18.177 V 7.749 c 0 -2.761 -2.238 -5 -5 -5 H 55.69 c -1.326 0 -2.598 0.527 -3.535 1.464 l -50.69 50.68 C 0.527 55.831 0 57.103 0 58.429 v 328.32 c 0 2.761 2.238 5 5 5 h 270 c 2.762 0 5 -2.239 5 -5 V 226.54 c 3.882 -1.941 7.658 -4.157 11.303 -6.649 l 72.467 72.467 c 3.509 3.509 8.117 5.264 12.728 5.264 c 4.608 0 9.219 -1.755 12.728 -5.264 c 3.4 -3.399 5.272 -7.92 5.272 -12.728 C 394.497 274.822 392.625 270.302 389.225 266.902 z M 323.742 139.527 c 0 23.332 -9.086 45.267 -25.584 61.764 c -34.059 34.058 -89.471 34.057 -123.529 0 c -16.498 -16.498 -25.584 -38.433 -25.584 -61.764 s 9.086 -45.267 25.584 -61.764 c 17.029 -17.028 39.396 -25.542 61.765 -25.542 s 44.735 8.514 61.765 25.542 C 314.656 94.261 323.742 116.196 323.742 139.527 z M 50.69 19.817 v 33.611 H 17.073 L 50.69 19.817 z M 270 381.749 H 10 V 63.429 h 45.69 c 2.762 0 5 -2.239 5 -5 v -45.68 H 270 v 35.448 c -34.511 -12.638 -74.79 -5.156 -102.441 22.496 c -6.161 6.161 -11.389 13.005 -15.625 20.357 h -46.932 c -2.762 0 -5 2.239 -5 5 s 2.238 5 5 5 h 41.922 c -2.822 6.557 -4.91 13.424 -6.224 20.5 H 48.5 c -2.762 0 -5 2.239 -5 5 s 2.238 5 5 5 h 90.871 c -0.213 2.64 -0.326 5.301 -0.326 7.979 c 0 4.222 0.271 8.401 0.797 12.521 H 93 c -2.762 0 -5 2.239 -5 5 s 2.238 5 5 5 h 48.656 c 1.676 7.109 4.145 13.978 7.364 20.5 H 48.5 c -2.762 0 -5 2.239 -5 5 s 2.238 5 5 5 h 106.222 c 3.678 5.64 7.964 10.941 12.836 15.814 c 1.642 1.642 3.343 3.186 5.07 4.686 H 155.5 c -2.762 0 -5 2.239 -5 5 s 2.238 5 5 5 h 30.89 c 15.335 9.179 32.667 13.781 50.004 13.781 c 11.394 0 22.781 -2.006 33.606 -5.971 V 381.749 z M 305.229 208.363 c 1.899 -1.899 3.705 -3.866 5.426 -5.89 l 51.275 51.275 l -11.314 11.314 l -51.295 -51.295 C 301.341 212.053 303.322 210.269 305.229 208.363 z M 382.154 285.287 c -3.119 3.119 -8.195 3.119 -11.314 0 l -13.154 -13.154 L 369 260.819 l 13.154 13.154 c 1.511 1.511 2.343 3.52 2.343 5.657 S 383.665 283.776 382.154 285.287 z" stroke-linecap="round"/>
</g>
		<g transform="matrix(1 0 0 1 -128.748 -101.1995)" id="Capa_1">
<path style="stroke: none; stroke-width: 1; stroke-dasharray: none; stroke-linecap: butt; stroke-dashoffset: 0; stroke-linejoin: miter; stroke-miterlimit: 4; is-custom-font: none; font-file-url: none; fill: rgb(0,0,0); fill-rule: nonzero; opacity: 1;" transform=" translate(-68.5005, -96.049)" d="M 48.5 101.049 h 40.001 c 2.762 0 5 -2.239 5 -5 s -2.238 -5 -5 -5 H 48.5 c -2.762 0 -5 2.239 -5 5 S 45.738 101.049 48.5 101.049 z" stroke-linecap="round"/>
</g>
		<g transform="matrix(1 0 0 1 -134.998 -40.1995)" id="Capa_1">
<path style="stroke: none; stroke-width: 1; stroke-dasharray: none; stroke-linecap: butt; stroke-dashoffset: 0; stroke-linejoin: miter; stroke-miterlimit: 4; is-custom-font: none; font-file-url: none; fill: rgb(0,0,0); fill-rule: nonzero; opacity: 1;" transform=" translate(-62.2505, -157.049)" d="M 48.5 162.049 h 27.501 c 2.762 0 5 -2.239 5 -5 s -2.238 -5 -5 -5 H 48.5 c -2.762 0 -5 2.239 -5 5 S 45.738 162.049 48.5 162.049 z" stroke-linecap="round"/>
</g>
		<g transform="matrix(1 0 0 1 -102.598 20.8005)" id="Capa_1">
<path style="stroke: none; stroke-width: 1; stroke-dasharray: none; stroke-linecap: butt; stroke-dashoffset: 0; stroke-linejoin: miter; stroke-miterlimit: 4; is-custom-font: none; font-file-url: none; fill: rgb(0,0,0); fill-rule: nonzero; opacity: 1;" transform=" translate(-94.6505, -218.049)" d="M 48.5 223.049 h 92.301 c 2.762 0 5 -2.239 5 -5 s -2.238 -5 -5 -5 H 48.5 c -2.762 0 -5 2.239 -5 5 S 45.738 223.049 48.5 223.049 z" stroke-linecap="round"/>
</g>
		<g transform="matrix(1 0 0 1 -38.248 51.3005)" id="Capa_1">
<path style="stroke: none; stroke-width: 1; stroke-dasharray: none; stroke-linecap: butt; stroke-dashoffset: 0; stroke-linejoin: miter; stroke-miterlimit: 4; is-custom-font: none; font-file-url: none; fill: rgb(0,0,0); fill-rule: nonzero; opacity: 1;" transform=" translate(-159.0005, -248.549)" d="M 231.5 243.549 H 86.501 c -2.762 0 -5 2.239 -5 5 s 2.238 5 5 5 H 231.5 c 2.762 0 5 -2.239 5 -5 S 234.262 243.549 231.5 243.549 z" stroke-linecap="round"/>
</g>
		<g transform="matrix(1 0 0 1 -137.748 51.3005)" id="Capa_1">
<path style="stroke: none; stroke-width: 1; stroke-dasharray: none; stroke-linecap: butt; stroke-dashoffset: 0; stroke-linejoin: miter; stroke-miterlimit: 4; is-custom-font: none; font-file-url: none; fill: rgb(0,0,0); fill-rule: nonzero; opacity: 1;" transform=" translate(-59.5005, -248.549)" d="M 48.5 253.549 h 22.001 c 2.762 0 5 -2.239 5 -5 s -2.238 -5 -5 -5 H 48.5 c -2.762 0 -5 2.239 -5 5 S 45.738 253.549 48.5 253.549 z" stroke-linecap="round"/>
</g>
		<g transform="matrix(1 0 0 1 -12.998 112.3005)" id="Capa_1">
<path style="stroke: none; stroke-width: 1; stroke-dasharray: none; stroke-linecap: butt; stroke-dashoffset: 0; stroke-linejoin: miter; stroke-miterlimit: 4; is-custom-font: none; font-file-url: none; fill: rgb(0,0,0); fill-rule: nonzero; opacity: 1;" transform=" translate(-184.2505, -309.549)" d="M 231.5 304.549 h -94.499 c -2.762 0 -5 2.239 -5 5 s 2.238 5 5 5 H 231.5 c 2.762 0 5 -2.239 5 -5 S 234.262 304.549 231.5 304.549 z" stroke-linecap="round"/>
</g>
		<g transform="matrix(1 0 0 1 -112.348 112.3005)" id="Capa_1">
<path style="stroke: none; stroke-width: 1; stroke-dasharray: none; stroke-linecap: butt; stroke-dashoffset: 0; stroke-linejoin: miter; stroke-miterlimit: 4; is-custom-font: none; font-file-url: none; fill: rgb(0,0,0); fill-rule: nonzero; opacity: 1;" transform=" translate(-84.9005, -309.549)" d="M 48.5 314.549 h 72.801 c 2.762 0 5 -2.239 5 -5 s -2.238 -5 -5 -5 H 48.5 c -2.762 0 -5 2.239 -5 5 S 45.738 314.549 48.5 314.549 z" stroke-linecap="round"/>
</g>
		<g transform="matrix(1 0 0 1 7.5015 142.8005)" id="Capa_1">
<path style="stroke: none; stroke-width: 1; stroke-dasharray: none; stroke-linecap: butt; stroke-dashoffset: 0; stroke-linejoin: miter; stroke-miterlimit: 4; is-custom-font: none; font-file-url: none; fill: rgb(0,0,0); fill-rule: nonzero; opacity: 1;" transform=" translate(-204.75, -340.049)" d="M 231.5 335.049 H 178 c -2.762 0 -5 2.239 -5 5 s 2.238 5 5 5 h 53.5 c 2.762 0 5 -2.239 5 -5 S 234.262 335.049 231.5 335.049 z" stroke-linecap="round"/>
</g>
		<g transform="matrix(1 0 0 1 -78.8975 142.8005)" id="Capa_1">
<path style="stroke: none; stroke-width: 1; stroke-dasharray: none; stroke-linecap: butt; stroke-dashoffset: 0; stroke-linejoin: miter; stroke-miterlimit: 4; is-custom-font: none; font-file-url: none; fill: rgb(0,0,0); fill-rule: nonzero; opacity: 1;" transform=" translate(-118.351, -340.049)" d="M 163.101 335.049 h -89.5 c -2.762 0 -5 2.239 -5 5 s 2.238 5 5 5 h 89.5 c 2.762 0 5 -2.239 5 -5 S 165.862 335.049 163.101 335.049 z" stroke-linecap="round"/>
</g>
		<g transform="matrix(1 0 0 1 -143.748 142.8005)" id="Capa_1">
<path style="stroke: none; stroke-width: 1; stroke-dasharray: none; stroke-linecap: butt; stroke-dashoffset: 0; stroke-linejoin: miter; stroke-miterlimit: 4; is-custom-font: none; font-file-url: none; fill: rgb(0,0,0); fill-rule: nonzero; opacity: 1;" transform=" translate(-53.5005, -340.049)" d="M 58.501 335.049 H 48.5 c -2.762 0 -5 2.239 -5 5 s 2.238 5 5 5 h 10.001 c 2.762 0 5 -2.239 5 -5 S 61.263 335.049 58.501 335.049 z" stroke-linecap="round"/>
</g>
		<g transform="matrix(1 0 0 1 19.002 81.8005)" id="Capa_1">
<path style="stroke: none; stroke-width: 1; stroke-dasharray: none; stroke-linecap: butt; stroke-dashoffset: 0; stroke-linejoin: miter; stroke-miterlimit: 4; is-custom-font: none; font-file-url: none; fill: rgb(0,0,0); fill-rule: nonzero; opacity: 1;" transform=" translate(-216.2505, -279.049)" d="M 231.5 274.049 h -30.499 c -2.762 0 -5 2.239 -5 5 s 2.238 5 5 5 H 231.5 c 2.762 0 5 -2.239 5 -5 S 234.262 274.049 231.5 274.049 z" stroke-linecap="round"/>
</g>
		<g transform="matrix(1 0 0 1 -81.2485 81.8005)" id="Capa_1">
<path style="stroke: none; stroke-width: 1; stroke-dasharray: none; stroke-linecap: butt; stroke-dashoffset: 0; stroke-linejoin: miter; stroke-miterlimit: 4; is-custom-font: none; font-file-url: none; fill: rgb(0,0,0); fill-rule: nonzero; opacity: 1;" transform=" translate(-116, -279.049)" d="M 48.5 284.049 h 135 c 2.762 0 5 -2.239 5 -5 s -2.238 -5 -5 -5 h -135 c -2.762 0 -5 2.239 -5 5 S 45.738 284.049 48.5 284.049 z" stroke-linecap="round"/>
</g>
		<g transform="matrix(1 0 0 1 45.0015 -68.4195)" id="Capa_1">
<path style="stroke: none; stroke-width: 1; stroke-dasharray: none; stroke-linecap: butt; stroke-dashoffset: 0; stroke-linejoin: miter; stroke-miterlimit: 4; is-custom-font: none; font-file-url: none; fill: rgb(0,0,0); fill-rule: nonzero; opacity: 1;" transform=" translate(-242.25, -128.829)" d="M 251 123.829 h -17.5 c -2.762 0 -5 2.239 -5 5 s 2.238 5 5 5 H 251 c 2.762 0 5 -2.239 5 -5 S 253.762 123.829 251 123.829 z" stroke-linecap="round"/>
</g>
		<g transform="matrix(1 0 0 1 30.7515 -27.4995)" id="Capa_1">
<path style="stroke: none; stroke-width: 1; stroke-dasharray: none; stroke-linecap: butt; stroke-dashoffset: 0; stroke-linejoin: miter; stroke-miterlimit: 4; is-custom-font: none; font-file-url: none; fill: rgb(0,0,0); fill-rule: nonzero; opacity: 1;" transform=" translate(-228, -169.749)" d="M 251 164.749 h -46 c -2.762 0 -5 2.239 -5 5 s 2.238 5 5 5 h 46 c 2.762 0 5 -2.239 5 -5 S 253.762 164.749 251 164.749 z" stroke-linecap="round"/>
</g>
</g>
</g>
<g transform="matrix(13.6578 0 0 13.6578 500.0002 500.0002)" id="863437">
<g style="" vector-effect="non-scaling-stroke">
		<g transform="matrix(1 0 0 1 -5.08 4.37)">
<path style="stroke: none; stroke-width: 1; stroke-dasharray: none; stroke-linecap: butt; stroke-dashoffset: 0; stroke-linejoin: miter; stroke-miterlimit: 4; is-custom-font: none; font-file-url: none; fill: rgb(0,0,0); fill-rule: nonzero; opacity: 1;" transform=" translate(-26.92, -36.37)" d="M 47.55 38.5 C 47.0196 38.5 46.5109 38.7107 46.1358 39.0858 C 45.7608 39.4608 45.55 39.9696 45.55 40.5 V 55 H 8.29004 V 17.74 H 19.7 C 20.2305 17.74 20.7392 17.5293 21.1143 17.1542 C 21.4893 16.7791 21.7 16.2704 21.7 15.74 C 21.7 15.2096 21.4893 14.7008 21.1143 14.3258 C 20.7392 13.9507 20.2305 13.74 19.7 13.74 H 6.29004 C 5.75961 13.74 5.2509 13.9507 4.87583 14.3258 C 4.50075 14.7008 4.29004 15.2096 4.29004 15.74 V 57 C 4.29004 57.5304 4.50075 58.0391 4.87583 58.4142 C 5.2509 58.7893 5.75961 59 6.29004 59 H 47.55 C 48.0805 59 48.5892 58.7893 48.9643 58.4142 C 49.3393 58.0391 49.55 57.5304 49.55 57 V 40.5 C 49.55 39.9696 49.3393 39.4608 48.9643 39.0858 C 48.5892 38.7107 48.0805 38.5 47.55 38.5 Z" stroke-linecap="round"/>
</g>
		<g transform="matrix(1 0 0 1 8.0485 -8.2514)">
<path style="stroke: none; stroke-width: 1; stroke-dasharray: none; stroke-linecap: butt; stroke-dashoffset: 0; stroke-linejoin: miter; stroke-miterlimit: 4; is-custom-font: none; font-file-url: none; fill: rgb(0,0,0); fill-rule: nonzero; opacity: 1;" transform=" translate(-40.0485, -23.7486)" d="M 59.5302 15.9101 C 59.5567 15.848 59.58 15.7846 59.6002 15.7201 C 59.6002 15.6601 59.6002 15.6001 59.6602 15.5401 C 59.7202 15.4801 59.6602 15.4201 59.6602 15.3501 C 59.6638 15.2801 59.6638 15.21 59.6602 15.1401 C 59.6602 15.1401 59.6602 15.1401 59.6602 15.0801 C 59.6602 15.0201 59.6602 14.9901 59.6602 14.9501 C 59.6602 14.9101 59.6602 14.8501 59.6602 14.8001 V 14.7401 C 59.6635 14.6735 59.6635 14.6067 59.6602 14.5401 C 59.6602 14.4801 59.6602 14.4201 59.6102 14.3601 C 59.5835 14.2952 59.5535 14.2318 59.5202 14.1701 L 59.4002 14.0001 L 59.2802 13.8301 L 59.1602 13.6901 L 59.0002 13.5801 L 58.9002 13.4901 L 48.1802 5.40008 C 47.7558 5.0805 47.2219 4.94257 46.6959 5.01665 C 46.1698 5.09072 45.6947 5.37074 45.3752 5.79508 C 45.0556 6.21943 44.9176 6.75335 44.9917 7.27939 C 45.0658 7.80543 45.3458 8.2805 45.7702 8.60008 L 51.8202 13.1601 C 34.3002 14.1101 20.4102 26.0001 20.4102 40.5001 C 20.4102 41.0305 20.6209 41.5392 20.9959 41.9143 C 21.371 42.2894 21.8797 42.5001 22.4102 42.5001 C 22.9406 42.5001 23.4493 42.2894 23.8244 41.9143 C 24.1994 41.5392 24.4102 41.0305 24.4102 40.5001 C 24.4102 27.7001 37.5102 17.2601 53.6902 17.1001 L 48.0002 24.6201 C 47.6845 25.0471 47.5515 25.582 47.6303 26.1071 C 47.709 26.6322 47.9932 27.1045 48.4202 27.4201 C 48.8472 27.7357 49.382 27.8687 49.9071 27.79 C 50.4322 27.7112 50.9045 27.4271 51.2202 27.0001 L 59.3002 16.2601 L 59.4102 16.0801 L 59.5302 15.9101 Z" stroke-linecap="round"/>
</g>
</g>
</g>
</svg>