<?xml version="1.0" encoding="iso-8859-1"?>
<!-- Generator: Adobe Illustrator 17.1.0, SVG Export Plug-In . SVG Version: 6.00 Build 0)  -->
<!DOCTYPE svg PUBLIC "-//W3C//DTD SVG 1.1//EN" "http://www.w3.org/Graphics/SVG/1.1/DTD/svg11.dtd">
<svg version="1.1" id="Capa_1" xmlns="http://www.w3.org/2000/svg" xmlns:xlink="http://www.w3.org/1999/xlink" x="0px" y="0px"
	 viewBox="0 0 352.702 352.702" style="enable-background:new 0 0 352.702 352.702;" xml:space="preserve">
<g>
	<path d="M189.994,91.351h84.857c5.522,0,10-4.477,10-10s-4.478-10-10-10h-84.857c-5.522,0-10,4.477-10,10
		S184.471,91.351,189.994,91.351z"/>
	<path d="M189.994,131.351h84.857c5.522,0,10-4.477,10-10s-4.478-10-10-10h-84.857c-5.522,0-10,4.477-10,10
		S184.471,131.351,189.994,131.351z"/>
	<path d="M324.851,312.702c-5.522,0-10,4.477-10,10v10h-277v-10c0-5.523-4.478-10-10-10s-10,4.477-10,10v20c0,5.523,4.478,10,10,10
		h297c5.522,0,10-4.477,10-10v-20C334.851,317.179,330.374,312.702,324.851,312.702z"/>
	<path d="M324.851,262.702c-5.522,0-10,4.477-10,10v10h-277v-10c0-5.523-4.478-10-10-10s-10,4.477-10,10v20c0,5.523,4.478,10,10,10
		h297c5.522,0,10-4.477,10-10v-20C334.851,267.179,330.374,262.702,324.851,262.702z"/>
	<path d="M324.851,212.702c-5.522,0-10,4.477-10,10v10h-277v-10c0-5.523-4.478-10-10-10s-10,4.477-10,10v20c0,5.523,4.478,10,10,10
		h297c5.522,0,10-4.477,10-10v-20C334.851,217.179,330.374,212.702,324.851,212.702z"/>
	<path d="M77.851,146.351h64c5.522,0,10-4.477,10-10s-4.478-10-10-10h-64c-5.522,0-10,4.477-10,10S72.329,146.351,77.851,146.351z"
		/>
	<path d="M109.851,116.351c16.542,0,30-13.458,30-30s-13.458-30-30-30s-30,13.458-30,30S93.309,116.351,109.851,116.351z
		 M109.851,76.351c5.514,0,10,4.486,10,10s-4.486,10-10,10s-10-4.486-10-10S104.337,76.351,109.851,76.351z"/>
	<path d="M324.851,0h-297c-5.522,0-10,4.477-10,10v182.702c0,5.523,4.478,10,10,10h297c5.522,0,10-4.477,10-10V10
		C334.851,4.477,330.374,0,324.851,0z M314.851,182.702h-277V20h277V182.702z"/>
</g>
<g>
</g>
<g>
</g>
<g>
</g>
<g>
</g>
<g>
</g>
<g>
</g>
<g>
</g>
<g>
</g>
<g>
</g>
<g>
</g>
<g>
</g>
<g>
</g>
<g>
</g>
<g>
</g>
<g>
</g>
</svg>
