<?xml version="1.0" encoding="iso-8859-1"?>
<!-- Generator: Adobe Illustrator 19.0.0, SVG Export Plug-In . SVG Version: 6.00 Build 0)  -->
<svg version="1.1" id="Layer_1" xmlns="http://www.w3.org/2000/svg" xmlns:xlink="http://www.w3.org/1999/xlink" x="0px" y="0px"
	 viewBox="0 0 512 512" style="enable-background:new 0 0 512 512;" xml:space="preserve">
<g>
	<g>
		<path d="M294.064,179.91c-6.441,0-11.68,5.239-11.68,11.68c0,6.44,5.239,11.679,11.68,11.679s11.68-5.239,11.68-11.679
			C305.744,185.149,300.505,179.91,294.064,179.91z"/>
	</g>
</g>
<g>
	<g>
		<path d="M217.849,179.91c-6.441,0-11.68,5.239-11.68,11.68c0,6.44,5.239,11.679,11.68,11.679s11.68-5.239,11.68-11.679
			C229.529,185.149,224.29,179.91,217.849,179.91z"/>
	</g>
</g>
<g>
	<g>
		<path d="M266.211,229.142h-20.422c-5.771,0-10.449,4.678-10.449,10.449c0,11.392,9.269,20.66,20.66,20.66s20.66-9.269,20.66-20.66
			C276.66,233.82,271.982,229.142,266.211,229.142z"/>
	</g>
</g>
<g>
	<g>
		<path d="M358.055,121.913c-3.408-4.658-9.945-5.674-14.603-2.266c-12.469,9.118-27.236,13.937-42.705,13.937
			c-29.842,0-57.046-18.738-67.693-46.625c-1.396-3.657-4.719-6.227-8.609-6.659c-3.892-0.434-7.696,1.347-9.86,4.608
			c-11.475,17.295-30.691,27.676-51.4,27.772c-5.771,0.026-10.427,4.726-10.401,10.497c0.027,5.755,4.7,10.401,10.448,10.401
			c0.016,0,0.032,0,0.049,0c21.879-0.101,42.509-8.786,57.769-23.825c6.659,10.922,15.522,20.387,26.168,27.856
			c15.736,11.039,34.244,16.873,53.527,16.873c19.935,0,38.969-6.212,55.043-17.966C360.447,133.11,361.463,126.572,358.055,121.913
			z"/>
	</g>
</g>
<g>
	<g>
		<path d="M256.077,405.004h-0.141c-5.771,0-10.449,4.678-10.449,10.449c0,5.771,4.678,10.449,10.449,10.449h0.141
			c5.771,0,10.449-4.678,10.449-10.449C266.527,409.682,261.848,405.004,256.077,405.004z"/>
	</g>
</g>
<g>
	<g>
		<path d="M256.077,370.26h-0.141c-5.771,0-10.449,4.678-10.449,10.449c0,5.771,4.678,10.449,10.449,10.449h0.141
			c5.771,0,10.449-4.678,10.449-10.449C266.527,374.938,261.848,370.26,256.077,370.26z"/>
	</g>
</g>
<g>
	<g>
		<path d="M184.338,413.974h-39.203c-5.771,0-10.449,4.678-10.449,10.449c0,5.771,4.678,10.449,10.449,10.449h39.203
			c5.771,0,10.449-4.678,10.449-10.449C194.787,418.652,190.109,413.974,184.338,413.974z"/>
	</g>
</g>
<g>
	<g>
		<path d="M501.551,458.905h-6.955c-4.696-36.021-33.291-64.624-69.309-69.318v-3.826c0-5.771-4.678-10.449-10.449-10.449
			c-2.405,0-4.615,0.821-6.381,2.187c-3.424-16.141-14.293-30.271-28.748-36.294l-67.249-28.02
			c-2.391-0.996-3.936-3.313-3.936-5.905v-16.272c0,0,27.691-15.886,27.873-16.006c13.676-9.031,22.657-25.094,24.023-42.966
			c0.021-0.264,0.03-0.531,0.03-0.796v-8.675c13.569-4.414,23.405-17.183,23.405-32.206c0-15.023-9.836-27.792-23.405-32.206
			v-21.648c0-57.516-46.793-104.309-104.309-104.309c-56.547,0-102.73,45.23-104.269,101.411c-0.265,0.92-0.408,1.892-0.408,2.898
			v21.648c-13.569,4.414-23.405,17.183-23.405,32.206c0,15.023,9.836,27.792,23.405,32.206v8.675c0,0.265,0.01,0.532,0.03,0.796
			c1.372,17.946,10.289,34.007,23.855,42.966c0.187,0.123,28.043,16.056,28.043,16.056v16.221c0,2.59-1.545,4.908-3.936,5.905
			l-67.25,28.021c-17.6,7.334-29.891,26.68-29.891,47.047v70.653h-8.269V342.019c0-15.786-4.257-31.305-12.31-44.879
			c-6.139-10.351-9.385-22.183-9.385-34.218v-29.018c0-11.335-9.223-20.558-20.558-20.558h-9.538
			c-11.335,0-20.558,9.223-20.558,20.558v29.018c0,12.036-3.244,23.867-9.384,34.217C4.257,310.716,0,326.235,0,342.019v127.336
			c0,5.771,4.678,10.449,10.449,10.449s10.449-4.678,10.449-10.449v-24.637c24.38-2.157,43.565-22.68,43.565-47.612
			c0-24.932-19.185-45.454-43.565-47.611v-7.475c0-12.033,3.246-23.866,9.386-34.217c6.265-10.562,10.221-22.303,11.674-34.429
			h10.129c1.452,12.125,5.407,23.867,11.674,34.431c6.139,10.348,9.385,22.179,9.385,34.215v116.887H44.34
			c-5.771,0-10.449,4.678-10.449,10.449c0,5.771,4.678,10.449,10.449,10.449h457.21c5.771,0,10.449-4.678,10.449-10.449
			C512,463.584,507.322,458.905,501.551,458.905z M43.565,397.106c0,13.395-9.838,24.532-22.667,26.574v-53.147
			C33.727,372.574,43.565,383.712,43.565,397.106z M51.45,252.473h-8.857v-18.227h8.857V252.473z M186.608,257.39
			c-7.985-5.406-13.285-15.293-14.247-26.571v-17.054c0-5.771-4.678-10.449-10.449-10.449c-7.144,0-12.956-5.813-12.956-12.956
			s5.813-12.956,12.956-12.956c5.771,0,10.449-4.678,10.449-10.449v-27.691c0.239-0.878,0.368-1.802,0.368-2.757
			c0-45.992,37.418-83.41,83.41-83.41c45.993,0,83.41,37.418,83.41,83.41v30.447c0,5.771,4.678,10.449,10.449,10.449
			c7.144,0,12.956,5.813,12.956,12.956s-5.813,12.956-12.956,12.956c-5.771,0-10.449,4.678-10.449,10.449v17.052
			c-0.949,11.05-6.443,21.177-14.42,26.578l-56.102,32.168c-0.191,0.11-0.377,0.225-0.561,0.346c-7.833,5.174-17.186,5.174-25.021,0
			c-0.187-0.123-0.377-0.241-0.573-0.352L186.608,257.39z M123.212,458.905v-70.653c0-11.777,7.322-23.71,17.031-27.756
			l24.654-10.273l71.988,108.682H123.212z M184.543,342.038l22.951-9.563c10.203-4.253,16.796-14.142,16.796-25.195v-4.275
			l7.939,4.538c7.334,4.764,15.532,7.145,23.728,7.145c8.2,0,16.398-2.383,23.733-7.149l7.933-4.549v4.288
			c0,11.055,6.593,20.945,16.797,25.196l23.023,9.592l-71.437,107.862L184.543,342.038z M275.129,458.904l71.958-108.651
			l24.582,10.242c9.709,4.046,17.031,15.978,17.031,27.756v5.024c-28.394,9.783-49.633,35.024-53.623,65.628H275.129z
			 M356.195,458.905c4.953-27.877,29.366-49.112,58.642-49.112s53.689,21.235,58.642,49.112H356.195z"/>
	</g>
</g>
<g>
	<g>
		<path d="M389.543,434.5c-4.415-3.717-11.007-3.151-14.723,1.265l-0.231,0.276c-3.682,4.444-3.064,11.032,1.379,14.714
			c1.95,1.615,4.312,2.403,6.661,2.403c3.004,0,5.985-1.288,8.052-3.783l0.126-0.153C394.525,444.809,393.959,438.216,389.543,434.5
			z"/>
	</g>
</g>
<g>
	<g>
		<path d="M455.085,436.044c-9.969-12.034-24.638-18.935-40.249-18.935c-4.067,0-8.12,0.47-12.047,1.398
			c-5.616,1.327-9.093,6.956-7.766,12.573c1.328,5.615,6.959,9.093,12.573,7.766c2.353-0.556,4.79-0.838,7.24-0.838
			c9.366,0,18.17,4.143,24.155,11.368c2.067,2.494,5.049,3.784,8.053,3.784c2.348,0,4.712-0.788,6.659-2.401
			C458.148,447.075,458.766,440.488,455.085,436.044z"/>
	</g>
</g>
<g>
	<g>
		<path d="M282.879,328.21c-3.233-1.866-7.216-1.866-10.449,0l-16.492,9.522l-16.493-9.522c-3.233-1.867-7.215-1.866-10.449,0
			c-3.233,1.866-5.225,5.316-5.225,9.049v25.077c0,3.734,1.992,7.183,5.225,9.049c1.617,0.933,3.42,1.4,5.225,1.4
			c1.805,0,3.608-0.467,5.225-1.4l16.493-9.522l16.492,9.522c1.617,0.934,3.42,1.4,5.225,1.4c1.804,0,3.608-0.467,5.225-1.4
			c3.233-1.866,5.225-5.316,5.225-9.049v-25.077C288.103,333.526,286.112,330.077,282.879,328.21z"/>
	</g>
</g>
<g>
</g>
<g>
</g>
<g>
</g>
<g>
</g>
<g>
</g>
<g>
</g>
<g>
</g>
<g>
</g>
<g>
</g>
<g>
</g>
<g>
</g>
<g>
</g>
<g>
</g>
<g>
</g>
<g>
</g>
</svg>
